<?xml version="1.0" standalone="no"?>
<!DOCTYPE svg PUBLIC "-//W3C//DTD SVG 20010904//EN"
 "http://www.w3.org/TR/2001/REC-SVG-20010904/DTD/svg10.dtd">
<svg version="1.0" xmlns="http://www.w3.org/2000/svg"
 width="1440.000000pt" height="813.000000pt" viewBox="0 0 1440.000000 813.000000"
 preserveAspectRatio="xMidYMid meet">

<g transform="translate(0.000000,813.000000) scale(0.100000,-0.100000)"
fill="#000000" stroke="none">
<path d="M5425 5300 c-109 -55 -169 -70 -279 -70 -78 0 -137 -21 -172 -61 -12
-13 -40 -56 -62 -95 -47 -81 -93 -126 -177 -174 -113 -63 -145 -110 -145 -212
0 -117 -17 -187 -72 -293 -70 -135 -70 -168 -4 -294 53 -103 76 -191 76 -295
0 -49 6 -82 20 -112 20 -40 38 -55 145 -122 68 -42 124 -103 175 -190 62 -106
94 -122 257 -132 l126 -7 104 -54 c142 -73 169 -73 315 -1 107 53 108 54 231
62 164 11 189 23 253 127 57 94 112 153 179 195 107 67 125 82 145 122 14 30
20 63 20 112 0 103 23 192 76 293 64 125 64 160 -5 296 -54 106 -71 177 -71
293 0 66 -21 121 -57 155 -11 9 -55 38 -98 65 -83 49 -125 94 -200 213 -54 86
-98 109 -210 109 -104 0 -176 19 -282 75 -118 63 -155 62 -288 -5z m399 -164
c300 -89 531 -309 629 -597 57 -167 62 -386 12 -554 -126 -428 -533 -706 -975
-665 -378 35 -687 288 -805 660 -36 114 -46 315 -21 438 40 197 115 334 265
482 90 89 121 113 206 157 173 89 280 114 470 108 104 -2 148 -9 219 -29z"/>
<path d="M5255 5011 c-22 -11 -37 -20 -34 -20 10 -1 79 29 79 34 0 7 0 7 -45
-14z"/>
<path d="M5852 5025 c9 -9 148 -75 148 -70 0 5 -89 51 -128 66 -15 6 -24 7
-20 4z"/>
<path d="M5310 4980 c-18 -12 -2 -12 25 0 13 6 15 9 5 9 -8 0 -22 -4 -30 -9z"/>
<path d="M5874 4955 c98 -42 152 -78 161 -105 10 -30 45 -26 45 5 0 20 -5 25
-26 25 -14 0 -39 9 -55 21 -35 25 -173 89 -191 89 -7 0 22 -16 66 -35z"/>
<path d="M5106 4929 c-78 -52 -96 -72 -96 -109 0 -35 24 -17 39 29 11 36 24
50 74 82 64 42 74 49 65 49 -4 0 -40 -23 -82 -51z"/>
<path d="M5211 4935 c-36 -19 -69 -39 -75 -45 -5 -5 -23 -10 -38 -10 -23 0
-28 -4 -28 -25 0 -35 31 -33 51 3 10 18 45 44 95 70 43 23 75 41 69 41 -5 1
-39 -15 -74 -34z"/>
<path d="M6035 4928 c49 -38 65 -57 65 -76 0 -11 9 -27 20 -37 20 -18 20 -17
20 10 0 30 -43 76 -102 108 l-33 18 30 -23z"/>
<path d="M5270 4910 c-46 -25 -34 -25 21 0 24 11 37 19 29 19 -8 0 -31 -8 -50
-19z"/>
<path d="M5906 4886 c34 -18 84 -49 112 -69 27 -20 61 -37 76 -37 52 0 17 31
-39 34 -11 1 -40 15 -65 32 -48 34 -124 74 -137 74 -4 0 20 -15 53 -34z"/>
<path d="M5161 4849 c-34 -23 -68 -38 -76 -35 -8 3 -24 -4 -37 -14 l-23 -19
32 -1 c21 0 44 11 74 36 23 19 55 42 71 50 24 13 36 24 24 24 -2 0 -31 -18
-65 -41z"/>
<path d="M4977 4822 c-19 -21 -25 -94 -6 -75 10 10 31 84 25 90 -2 2 -10 -5
-19 -15z"/>
<path d="M6160 4800 c10 -57 30 -76 30 -29 0 22 -7 42 -19 53 -18 16 -18 15
-11 -24z"/>
<path d="M5348 4779 c-18 -19 -53 -41 -78 -49 -88 -30 -118 -127 -60 -193 l30
-35 0 -380 c0 -341 2 -381 17 -393 12 -11 73 -15 271 -17 306 -4 296 -7 306
96 8 75 13 82 68 82 41 0 89 52 120 127 21 52 23 74 23 218 0 239 -28 295
-148 295 l-60 0 20 23 c34 37 44 65 37 102 -9 47 -54 85 -103 85 -20 0 -55 9
-76 20 -25 13 -50 19 -67 16 -15 -3 -43 1 -62 9 -20 9 -55 15 -78 15 -24 -1
-62 2 -85 6 -39 6 -45 3 -75 -27z m103 0 c15 -8 18 -14 9 -24 -6 -7 7 -4 30 7
39 20 68 19 99 -1 12 -8 12 -12 -2 -26 -26 -25 -20 -29 9 -6 35 28 104 29 128
2 13 -15 26 -18 50 -14 44 7 74 -11 92 -53 18 -43 4 -80 -38 -103 -23 -13 -32
-13 -62 -3 -29 11 -43 11 -70 1 -24 -9 -41 -9 -64 -1 -43 15 -72 5 -72 -25 0
-13 -12 -36 -26 -50 -22 -22 -31 -25 -70 -19 l-44 6 0 -109 c0 -113 -9 -138
-44 -125 -13 5 -16 23 -16 109 0 99 -1 103 -25 119 -14 9 -25 23 -25 31 0 8
-9 15 -20 15 -11 0 -34 13 -52 29 -27 24 -33 36 -33 70 0 56 43 101 97 101 28
0 38 4 38 15 0 23 46 65 70 65 12 0 30 -5 41 -11z m294 -239 c3 -5 18 -10 33
-10 15 0 36 -7 47 -16 13 -9 39 -14 79 -13 51 2 61 -1 77 -22 24 -32 36 -86
44 -194 15 -207 -52 -375 -149 -375 -49 0 -66 -25 -69 -101 l-2 -64 -264 -3
c-186 -2 -267 1 -271 9 -11 18 -13 739 -2 739 6 0 24 -13 41 -29 31 -29 31
-30 31 -130 0 -89 2 -101 19 -111 28 -14 38 -13 61 10 17 17 20 33 20 115 l0
95 39 0 c47 0 87 29 96 71 7 30 7 30 60 24 32 -4 60 -3 72 4 23 13 30 13 38 1z"/>
<path d="M5826 4414 c-13 -13 -16 -45 -16 -193 0 -166 1 -180 21 -205 32 -40
59 -31 89 29 23 45 25 62 25 175 0 133 -6 169 -31 194 -20 20 -68 20 -88 0z
m80 -36 c12 -23 17 -59 17 -132 1 -113 -15 -196 -43 -221 -17 -16 -19 -15 -29
4 -12 21 -16 363 -4 374 16 17 44 5 59 -25z"/>
<path d="M4919 4753 c-20 -35 -12 -86 9 -60 7 9 12 32 10 52 l-3 37 -16 -29z"/>
<path d="M6210 4743 c0 -24 6 -46 15 -53 13 -11 15 -8 15 21 0 19 -7 43 -15
53 -14 19 -15 17 -15 -21z"/>
<path d="M5028 4763 c-14 -2 -32 -11 -38 -19 -20 -23 43 -18 65 6 10 11 14 19
9 19 -5 -1 -21 -4 -36 -6z"/>
<path d="M6097 4748 c20 -22 82 -26 64 -4 -6 8 -27 16 -46 18 -33 4 -34 3 -18
-14z"/>
<path d="M4871 4688 c-8 -16 -11 -37 -7 -54 11 -41 28 -15 24 37 l-3 44 -14
-27z"/>
<path d="M4961 4697 c-36 -18 -38 -35 -4 -29 31 5 53 19 53 33 0 13 -21 11
-49 -4z"/>
<path d="M6143 4693 c10 -12 31 -23 48 -25 54 -8 25 27 -32 38 -34 7 -34 7
-16 -13z"/>
<path d="M6260 4668 c0 -48 13 -71 24 -42 10 26 7 49 -9 70 -13 18 -14 16 -15
-28z"/>
<path d="M4909 4629 c-11 -11 -18 -23 -15 -26 10 -11 56 8 66 27 9 17 8 20
-10 20 -11 0 -29 -9 -41 -21z"/>
<path d="M6189 4631 c11 -19 56 -39 66 -29 10 9 -21 37 -49 44 -26 6 -27 5
-17 -15z"/>
<path d="M4830 4618 c-11 -23 -11 -33 0 -55 12 -27 13 -27 20 -7 5 11 5 36 1
55 l-8 34 -13 -27z"/>
<path d="M6298 4608 c-9 -61 14 -95 27 -39 5 25 -7 71 -19 71 -2 0 -6 -14 -8
-32z"/>
<path d="M4905 4580 c-23 -9 -50 -38 -43 -46 9 -9 55 14 62 32 8 22 6 23 -19
14z"/>
<path d="M6220 4583 c0 -14 15 -30 38 -42 35 -19 41 -3 9 25 -28 24 -47 31
-47 17z"/>
<path d="M4795 4540 c-3 -14 -1 -39 6 -55 l11 -30 10 27 c7 19 5 34 -6 55
l-14 28 -7 -25z"/>
<path d="M6338 4554 c-11 -19 -16 -60 -9 -78 6 -17 9 -15 21 13 9 22 10 38 3
53 -5 12 -12 18 -15 12z"/>
<path d="M4868 4509 c-10 -5 -22 -19 -28 -29 -15 -27 13 -27 40 0 32 32 25 51
-12 29z"/>
<path d="M6250 4510 c0 -15 38 -50 55 -50 13 0 14 4 5 20 -15 29 -60 51 -60
30z"/>
<path d="M4770 4446 c0 -18 7 -39 15 -46 13 -10 15 -9 15 11 0 34 -11 69 -21
69 -5 0 -9 -15 -9 -34z"/>
<path d="M6356 4458 c-3 -13 -6 -34 -6 -47 0 -20 2 -21 15 -11 16 13 21 80 6
80 -5 0 -11 -10 -15 -22z"/>
<path d="M4849 4437 c-26 -22 -45 -57 -31 -57 15 1 50 36 57 58 8 27 6 27 -26
-1z"/>
<path d="M6275 4439 c11 -38 55 -66 55 -35 0 8 -14 25 -31 37 l-31 22 7 -24z"/>
<path d="M4750 4372 c0 -16 9 -37 20 -47 19 -18 20 -17 20 3 0 26 -20 72 -32
72 -4 0 -8 -13 -8 -28z"/>
<path d="M6372 4375 c-13 -28 -16 -65 -6 -65 14 0 33 36 34 63 0 34 -13 35
-28 2z"/>
<path d="M4833 4368 c-23 -26 -36 -58 -25 -58 17 0 52 42 52 60 0 25 -2 25
-27 -2z"/>
<path d="M6290 4365 c0 -17 35 -55 50 -55 12 0 2 29 -18 53 -19 21 -32 22 -32
2z"/>
<path d="M4740 4304 c0 -31 24 -74 42 -74 15 0 1 48 -23 78 l-19 25 0 -29z"/>
<path d="M6388 4304 c-21 -24 -34 -74 -19 -74 17 0 43 47 39 71 -3 21 -3 21
-20 3z"/>
<path d="M4822 4290 c-24 -23 -31 -63 -8 -54 17 6 40 48 35 63 -3 8 -13 4 -27
-9z"/>
<path d="M6300 4293 c1 -21 38 -69 46 -60 11 11 -5 52 -26 65 -17 10 -20 10
-20 -5z"/>
<path d="M4740 4223 c0 -31 10 -52 31 -64 29 -15 25 23 -6 58 -23 27 -24 27
-25 6z"/>
<path d="M4822 4216 c-23 -30 -29 -56 -12 -56 15 0 42 47 38 67 -3 14 -7 13
-26 -11z"/>
<path d="M6300 4219 c0 -23 26 -59 43 -59 15 0 6 31 -18 57 l-24 28 -1 -26z"/>
<path d="M6388 4220 c-10 -11 -21 -31 -24 -46 -6 -24 -5 -25 15 -15 20 11 36
50 29 71 -2 6 -11 1 -20 -10z"/>
<path d="M4825 4137 c-14 -27 -16 -40 -8 -48 15 -15 35 23 31 58 -3 27 -3 26
-23 -10z"/>
<path d="M6300 4144 c0 -16 6 -39 14 -50 14 -18 15 -18 21 -2 4 11 -1 31 -14
50 l-21 33 0 -31z"/>
<path d="M4746 4135 c3 -16 16 -38 28 -47 36 -29 33 9 -4 46 l-31 31 7 -30z"/>
<path d="M6377 4132 c-15 -16 -27 -36 -27 -45 0 -16 2 -16 24 -2 19 13 41 63
32 72 -1 2 -15 -10 -29 -25z"/>
<path d="M4842 4075 c-14 -31 -16 -65 -3 -65 15 0 34 57 24 75 -8 14 -11 12
-21 -10z"/>
<path d="M6286 4083 c-7 -22 11 -73 26 -73 12 0 9 42 -6 69 -13 24 -14 24 -20
4z"/>
<path d="M4760 4063 c0 -23 32 -63 50 -63 18 0 11 19 -20 52 -28 31 -29 32
-30 11z"/>
<path d="M6356 4049 c-27 -32 -33 -49 -16 -49 17 0 50 39 50 60 0 27 -4 25
-34 -11z"/>
<path d="M4861 4001 c-10 -22 -11 -38 -4 -53 9 -20 10 -20 22 11 10 22 11 38
4 53 -9 20 -10 20 -22 -11z"/>
<path d="M6265 4008 c-4 -16 -1 -37 8 -55 l15 -28 7 27 c4 16 1 37 -8 55 l-15
28 -7 -27z"/>
<path d="M4780 3991 c0 -23 15 -43 41 -57 31 -16 34 -13 19 15 -11 22 -60 56
-60 42z"/>
<path d="M6331 3971 c-40 -37 -41 -57 -2 -36 27 13 49 50 38 61 -2 3 -18 -9
-36 -25z"/>
<path d="M4885 3930 c-3 -16 -2 -37 4 -47 9 -16 11 -15 20 8 10 28 5 69 -9 69
-5 0 -11 -13 -15 -30z"/>
<path d="M6242 3943 c-9 -16 -9 -29 -1 -50 11 -27 11 -28 21 -6 7 14 7 31 1
50 -10 28 -10 28 -21 6z"/>
<path d="M6308 3904 c-42 -27 -50 -47 -17 -42 21 3 68 53 58 62 -2 2 -21 -7
-41 -20z"/>
<path d="M4810 3900 c17 -31 70 -54 70 -30 0 10 -58 50 -73 50 -4 0 -3 -9 3
-20z"/>
<path d="M4920 3858 c0 -18 4 -40 9 -47 8 -12 11 -9 16 11 8 30 -1 68 -16 68
-5 0 -9 -15 -9 -32z"/>
<path d="M6204 3866 c-8 -33 5 -74 17 -55 12 19 11 79 -1 79 -5 0 -12 -11 -16
-24z"/>
<path d="M4840 3842 c1 -17 28 -41 53 -47 29 -8 36 5 14 23 -18 15 -67 33 -67
24z"/>
<path d="M6274 3835 c-51 -21 -60 -52 -12 -40 21 5 55 42 46 50 -2 2 -17 -3
-34 -10z"/>
<path d="M4960 3804 c0 -25 6 -47 15 -54 13 -11 15 -8 15 22 0 19 -7 43 -15
54 -13 18 -14 16 -15 -22z"/>
<path d="M6173 3823 c-7 -12 -13 -36 -13 -54 0 -30 1 -32 16 -18 10 11 14 29
12 55 -3 37 -4 38 -15 17z"/>
<path d="M4890 3760 c13 -25 30 -33 62 -28 l23 3 -25 17 c-14 9 -36 19 -48 23
-22 6 -23 5 -12 -15z"/>
<path d="M6224 3766 c-46 -20 -53 -38 -14 -34 20 2 38 12 48 26 17 25 10 27
-34 8z"/>
<path d="M5005 3751 c-7 -22 10 -61 25 -61 15 0 12 56 -4 69 -11 10 -16 8 -21
-8z"/>
<path d="M6122 3758 c-15 -15 -16 -68 -2 -68 15 0 31 49 22 66 -6 11 -11 11
-20 2z"/>
<path d="M5055 3700 c4 -19 13 -42 21 -50 12 -12 14 -10 14 16 0 19 -8 38 -21
50 l-21 19 7 -35z"/>
<path d="M6077 3712 c-10 -10 -17 -32 -17 -47 0 -25 2 -27 14 -15 13 14 32 80
23 80 -2 0 -11 -8 -20 -18z"/>
<path d="M4945 3690 c10 -12 31 -20 48 -20 29 0 30 0 12 20 -10 12 -31 20 -48
20 -29 0 -30 0 -12 -20z"/>
<path d="M6145 3690 c-18 -20 -17 -20 12 -20 17 0 38 8 48 20 18 20 17 20 -12
20 -17 0 -38 -8 -48 -20z"/>
<path d="M5110 3651 c0 -10 9 -29 20 -42 l19 -24 1 31 c0 29 -15 54 -32 54 -4
0 -8 -9 -8 -19z"/>
<path d="M6010 3651 c-5 -11 -10 -30 -10 -43 l1 -23 19 24 c21 24 27 61 10 61
-5 0 -14 -9 -20 -19z"/>
<path d="M5549 3610 l-13 -50 -55 0 -56 -1 25 -19 c14 -10 34 -25 44 -33 18
-13 18 -16 3 -60 -9 -26 -13 -47 -10 -47 3 0 21 11 39 25 18 14 36 25 40 25 4
0 22 -12 41 -26 19 -14 36 -24 39 -21 3 2 -2 24 -10 48 -14 39 -14 44 2 55 9
6 28 21 42 33 l25 20 -52 1 -51 0 -17 50 c-9 28 -18 50 -20 50 -2 0 -9 -22
-16 -50z"/>
<path d="M6127 3650 c-55 -10 -71 -30 -26 -30 23 0 42 7 54 20 10 11 16 19 14
19 -2 -1 -21 -5 -42 -9z"/>
<path d="M5000 3635 c7 -8 28 -15 49 -15 34 1 35 2 17 15 -11 8 -33 15 -49 15
-25 0 -28 -2 -17 -15z"/>
<path d="M5160 3637 c0 -21 26 -70 43 -78 17 -10 19 -9 14 6 -4 9 -7 23 -7 30
0 7 -11 20 -25 29 -14 9 -25 15 -25 13z"/>
<path d="M5964 3622 c-12 -9 -24 -30 -28 -45 -6 -26 -5 -27 14 -17 11 6 20 12
20 13 0 1 4 17 9 35 5 17 9 32 8 32 -1 0 -12 -8 -23 -18z"/>
<path d="M5054 3585 c11 -8 35 -15 54 -15 30 0 33 2 22 15 -7 9 -29 15 -54 15
-38 -1 -40 -2 -22 -15z"/>
<path d="M5232 3573 c12 -28 35 -53 50 -53 12 0 -11 52 -30 66 -27 21 -33 16
-20 -13z"/>
<path d="M5903 3588 c-19 -9 -51 -68 -37 -68 18 0 43 24 52 50 6 16 10 30 9
29 -1 0 -12 -5 -24 -11z"/>
<path d="M6020 3585 c-11 -13 -8 -15 22 -15 19 0 43 7 54 15 18 13 16 14 -22
15 -25 0 -47 -6 -54 -15z"/>
<path d="M5125 3551 c-19 -8 -19 -8 3 -20 14 -7 36 -10 55 -5 29 6 30 7 12 20
-21 15 -40 17 -70 5z"/>
<path d="M5955 3546 c-18 -13 -17 -14 12 -20 19 -5 41 -2 55 5 22 12 22 12 3
20 -30 12 -49 10 -70 -5z"/>
<path d="M5190 3511 l-25 -7 30 -11 c35 -12 97 3 74 18 -16 10 -43 10 -79 0z"/>
<path d="M5882 3511 c-24 -15 38 -30 73 -18 27 9 28 11 10 18 -27 10 -67 11
-83 0z"/>
<path d="M5800 3495 c-19 -7 -28 -14 -20 -14 8 0 29 6 45 14 39 17 21 18 -25
0z"/>
<path d="M5358 3483 c7 -3 16 -2 19 1 4 3 -2 6 -13 5 -11 0 -14 -3 -6 -6z"/>
<path d="M5398 3473 c7 -3 16 -2 19 1 4 3 -2 6 -13 5 -11 0 -14 -3 -6 -6z"/>
<path d="M5738 3473 c7 -3 16 -2 19 1 4 3 -2 6 -13 5 -11 0 -14 -3 -6 -6z"/>
<path d="M5688 3463 c7 -3 16 -2 19 1 4 3 -2 6 -13 5 -11 0 -14 -3 -6 -6z"/>
<path d="M7020 3916 c0 -105 2 -126 15 -126 11 0 15 12 15 50 l0 50 38 0 c100
0 152 27 152 79 0 49 -31 66 -131 69 l-89 4 0 -126z m174 78 c20 -19 20 -25 2
-49 -10 -14 -30 -20 -80 -23 l-66 -4 0 46 0 46 64 0 c45 0 69 -5 80 -16z"/>
<path d="M9457 4020 c-6 -23 10 -37 25 -22 12 12 4 42 -11 42 -5 0 -11 -9 -14
-20z"/>
<path d="M9444 3973 c-16 -3 -30 -23 -51 -70 l-30 -67 -37 67 -38 67 -64 -2
-64 -2 -1 -35 c0 -31 -2 -33 -9 -15 -23 57 -116 73 -167 30 -22 -19 -28 -32
-28 -66 0 -34 6 -47 28 -66 39 -34 108 -33 142 1 14 13 25 29 25 35 0 17 -26
11 -45 -10 -32 -35 -115 -23 -115 17 0 10 22 13 85 13 l85 0 0 -40 c0 -27 4
-40 14 -40 10 0 15 18 18 61 3 46 9 65 24 76 34 25 54 11 94 -62 21 -38 45
-71 53 -73 9 -2 25 23 47 73 18 41 36 75 40 75 4 0 7 -34 6 -75 -1 -65 1 -75
17 -75 15 0 17 11 17 95 0 99 1 97 -46 88z m-330 -59 c4 -11 -7 -14 -59 -14
-64 0 -78 7 -52 28 30 24 100 16 111 -14z"/>
<path d="M7266 3944 c-43 -43 -35 -114 15 -139 78 -41 159 -3 159 75 0 60 -33
90 -98 90 -40 0 -54 -5 -76 -26z m136 -26 c13 -21 9 -60 -9 -80 -26 -29 -88
-24 -109 8 -35 52 16 111 79 93 17 -5 34 -14 39 -21z"/>
<path d="M7450 3906 c0 -49 5 -69 21 -90 19 -24 26 -26 90 -24 l69 2 0 88 c0
68 -3 88 -14 88 -10 0 -15 -18 -18 -66 -5 -74 -15 -86 -68 -82 l-35 3 -3 73
c-3 64 -5 72 -22 72 -18 0 -20 -7 -20 -64z"/>
<path d="M7650 3878 c0 -72 3 -88 15 -88 11 0 15 13 15 53 0 59 18 94 52 99
12 2 23 8 25 15 3 9 -11 12 -51 11 l-56 -2 0 -88z"/>
<path d="M7918 3880 c26 -49 53 -90 59 -90 7 0 33 41 58 90 38 76 43 90 27 90
-12 0 -28 -22 -51 -67 l-33 -68 -34 68 c-24 47 -40 67 -53 67 -17 0 -14 -11
27 -90z"/>
<path d="M8088 3940 c-26 -27 -30 -36 -25 -68 16 -98 161 -115 199 -23 l12 26
4 -25 c8 -48 29 -60 104 -58 l68 2 0 88 c0 72 -3 88 -15 88 -12 0 -15 -13 -15
-58 0 -75 -14 -94 -65 -90 l-40 3 -3 73 c-2 52 -7 72 -16 72 -18 0 -25 -19
-21 -61 l3 -34 -13 32 c-20 43 -52 63 -103 63 -35 0 -49 -6 -74 -30z m140 -33
c13 -28 4 -62 -22 -79 -16 -11 -64 -10 -87 2 -22 12 -26 67 -6 92 27 35 95 26
115 -15z"/>
<path d="M8498 3959 c-20 -11 -25 -64 -8 -74 6 -4 32 -12 58 -18 31 -8 48 -18
50 -30 3 -16 -2 -18 -40 -15 -33 2 -45 8 -53 26 -5 12 -15 22 -22 22 -20 0
-15 -38 7 -60 39 -39 150 -18 150 29 0 26 -26 44 -79 56 -49 11 -61 32 -26 45
26 10 65 -5 65 -25 0 -8 9 -15 19 -15 15 0 18 5 14 23 -3 12 -13 28 -21 35
-19 14 -90 16 -114 1z"/>
<path d="M8808 3959 c-11 -6 -18 -22 -18 -39 0 -33 16 -44 77 -55 47 -7 56
-14 44 -34 -5 -7 -23 -11 -47 -9 -29 2 -42 9 -49 26 -5 12 -15 22 -22 22 -20
0 -15 -38 7 -60 27 -27 110 -28 133 -2 36 39 13 71 -62 87 -59 13 -63 39 -8
43 32 3 39 0 44 -17 3 -12 14 -21 25 -21 15 0 18 5 13 23 -4 12 -14 28 -23 35
-19 14 -90 16 -114 1z"/>
<path d="M9510 3878 c0 -72 3 -88 15 -88 12 0 15 13 15 58 0 62 14 86 54 93
11 2 21 9 23 16 3 9 -11 12 -51 11 l-56 -2 0 -88z"/>
</g>
</svg>
